<svg width="18" height="11" viewBox="0 0 18 11" fill="none" xmlns="http://www.w3.org/2000/svg">
<path d="M6.80253 0.955353L6.60461 2.20883L5.77336 2.15605C6.20878 2.59147 6.45947 3.18522 6.45947 3.83175C6.45947 4.67619 6.03725 5.44147 5.35113 5.91647C5.94488 6.35189 6.31433 7.01161 6.31433 7.80328C6.31433 9.1887 5.15322 10.363 3.5171 10.363C2.19766 10.363 1.19488 9.62411 0.851823 8.50259L2.11849 7.73731C2.26363 8.48939 2.8046 8.96439 3.50391 8.96439C4.25599 8.96439 4.77058 8.44981 4.77058 7.7637C4.77058 7.06439 4.2428 6.563 3.47752 6.563C3.01571 6.563 2.60669 6.74772 2.25044 7.13036L1.89419 6.0748C1.04974 5.5998 0.535156 4.78175 0.535156 3.81855C0.535156 2.39355 1.65669 1.16646 3.56988 1.0873L6.80253 0.955353ZM2.17127 3.81855C2.17127 4.55744 2.73863 5.1248 3.50391 5.1248C4.26919 5.1248 4.84974 4.55744 4.84974 3.81855C4.84974 3.09286 4.26919 2.49911 3.50391 2.49911C2.75183 2.49911 2.17127 3.09286 2.17127 3.81855Z" fill="#42B52E"/>
<path d="M17.2018 3.51508V7.2887H15.4074V3.73938C15.4074 3.06647 15.0247 2.67063 14.4838 2.67063C13.9032 2.67063 13.4942 3.11924 13.4942 3.80536V7.2887H11.6865V3.73938C11.6865 3.06647 11.3171 2.67063 10.7761 2.67063C10.1824 2.67063 9.77334 3.11924 9.77334 3.80536V7.2887H7.97889V1.39077L9.72056 1.17966V1.89216C10.1296 1.40396 10.7101 1.12688 11.3963 1.12688C12.1351 1.12688 12.7025 1.43035 13.072 1.99772C13.5074 1.43035 14.2067 1.12688 15.0115 1.12688C16.397 1.12688 17.2018 2.05049 17.2018 3.51508Z" fill="#42B52E"/>
</svg>
