<svg width="23" height="22" viewBox="0 0 23 22" fill="none" xmlns="http://www.w3.org/2000/svg">
<path d="M0.0271121 19.7963L0.542242 16.5112C1.95207 17.2986 3.25345 17.7873 4.50061 17.7873C5.61221 17.7873 6.2629 17.2714 6.2629 16.4298C6.2629 15.7782 5.91044 15.2895 4.4735 14.8551L3.87703 14.6379C1.62673 13.8506 0.298233 12.3031 0.298233 10.0497C0.298233 7.44337 2.35875 5.48862 5.53087 5.48862C6.96781 5.48862 8.51321 5.86871 9.92304 6.49314L9.38079 9.80536C8.07941 9.12663 6.66958 8.71939 5.74777 8.71939C4.82596 8.71939 4.28371 9.23522 4.28371 9.88681C4.28371 10.4841 4.60906 10.9185 5.80199 11.3529L6.45268 11.5701C9.08256 12.4931 10.4111 13.9864 10.4111 16.294C10.4111 19.1719 8.24208 21.1266 4.90729 21.1266C3.17212 21.1266 1.46405 20.6108 0 19.7963H0.0271121Z" fill="#42B52E"/>
<path d="M18.6264 9.45257V15.0182C18.6264 16.3213 19.3042 17.0815 20.5785 17.0815C21.2021 17.0815 21.9341 16.8915 22.4763 16.7014V20.4209C21.7172 20.7467 20.6869 20.9639 19.5211 20.9639C16.0237 20.9639 14.2071 18.8734 14.2071 15.5883V9.47972H11.9026L12.4449 5.89601H14.2071V3.12678L18.6264 0.873383V5.89601H22.4763V9.47972H18.6264V9.45257Z" fill="#42B52E"/>
</svg>
